<svg id="visual" viewBox="0 0 900 600" width="900" height="600" xmlns="http://www.w3.org/2000/svg" xmlns:xlink="http://www.w3.org/1999/xlink" version="1.1"><rect x="0" y="0" width="900" height="600" fill="#001220"></rect><defs><linearGradient id="grad1_0" x1="33.3%" y1="0%" x2="100%" y2="100%"><stop offset="20%" stop-color="#fbae3c" stop-opacity="1"></stop><stop offset="80%" stop-color="#fbae3c" stop-opacity="1"></stop></linearGradient></defs><defs><linearGradient id="grad1_1" x1="33.3%" y1="0%" x2="100%" y2="100%"><stop offset="20%" stop-color="#fbae3c" stop-opacity="1"></stop><stop offset="80%" stop-color="#f17c53" stop-opacity="1"></stop></linearGradient></defs><defs><linearGradient id="grad1_2" x1="33.3%" y1="0%" x2="100%" y2="100%"><stop offset="20%" stop-color="#cc5867" stop-opacity="1"></stop><stop offset="80%" stop-color="#f17c53" stop-opacity="1"></stop></linearGradient></defs><defs><linearGradient id="grad1_3" x1="33.3%" y1="0%" x2="100%" y2="100%"><stop offset="20%" stop-color="#cc5867" stop-opacity="1"></stop><stop offset="80%" stop-color="#96446e" stop-opacity="1"></stop></linearGradient></defs><defs><linearGradient id="grad1_4" x1="33.3%" y1="0%" x2="100%" y2="100%"><stop offset="20%" stop-color="#593762" stop-opacity="1"></stop><stop offset="80%" stop-color="#96446e" stop-opacity="1"></stop></linearGradient></defs><defs><linearGradient id="grad1_5" x1="33.3%" y1="0%" x2="100%" y2="100%"><stop offset="20%" stop-color="#593762" stop-opacity="1"></stop><stop offset="80%" stop-color="#232745" stop-opacity="1"></stop></linearGradient></defs><defs><linearGradient id="grad1_6" x1="33.3%" y1="0%" x2="100%" y2="100%"><stop offset="20%" stop-color="#001220" stop-opacity="1"></stop><stop offset="80%" stop-color="#232745" stop-opacity="1"></stop></linearGradient></defs><defs><linearGradient id="grad2_0" x1="0%" y1="0%" x2="66.7%" y2="100%"><stop offset="20%" stop-color="#fbae3c" stop-opacity="1"></stop><stop offset="80%" stop-color="#fbae3c" stop-opacity="1"></stop></linearGradient></defs><defs><linearGradient id="grad2_1" x1="0%" y1="0%" x2="66.7%" y2="100%"><stop offset="20%" stop-color="#f17c53" stop-opacity="1"></stop><stop offset="80%" stop-color="#fbae3c" stop-opacity="1"></stop></linearGradient></defs><defs><linearGradient id="grad2_2" x1="0%" y1="0%" x2="66.7%" y2="100%"><stop offset="20%" stop-color="#f17c53" stop-opacity="1"></stop><stop offset="80%" stop-color="#cc5867" stop-opacity="1"></stop></linearGradient></defs><defs><linearGradient id="grad2_3" x1="0%" y1="0%" x2="66.7%" y2="100%"><stop offset="20%" stop-color="#96446e" stop-opacity="1"></stop><stop offset="80%" stop-color="#cc5867" stop-opacity="1"></stop></linearGradient></defs><defs><linearGradient id="grad2_4" x1="0%" y1="0%" x2="66.7%" y2="100%"><stop offset="20%" stop-color="#96446e" stop-opacity="1"></stop><stop offset="80%" stop-color="#593762" stop-opacity="1"></stop></linearGradient></defs><defs><linearGradient id="grad2_5" x1="0%" y1="0%" x2="66.7%" y2="100%"><stop offset="20%" stop-color="#232745" stop-opacity="1"></stop><stop offset="80%" stop-color="#593762" stop-opacity="1"></stop></linearGradient></defs><defs><linearGradient id="grad2_6" x1="0%" y1="0%" x2="66.7%" y2="100%"><stop offset="20%" stop-color="#232745" stop-opacity="1"></stop><stop offset="80%" stop-color="#001220" stop-opacity="1"></stop></linearGradient></defs><g transform="translate(900, 0)"><path d="M0 486.7C-38.8 448 -77.6 409.2 -130.4 401.3C-183.2 393.5 -250.2 416.7 -286.1 393.8C-322.1 370.9 -327 302 -351.1 255.1C-375.2 208.2 -418.4 183.2 -444.1 144.3C-469.9 105.5 -478.3 52.7 -486.7 0L0 0Z" fill="#0f1d33"></path><path d="M0 417.2C-33.2 384 -66.5 350.7 -111.8 344C-157.1 337.3 -214.4 357.1 -245.2 337.5C-276 317.9 -280.3 258.9 -301 218.7C-321.6 178.4 -358.6 157 -380.7 123.7C-402.8 90.4 -410 45.2 -417.2 0L0 0Z" fill="#3d3056"></path><path d="M0 347.7C-27.7 320 -55.4 292.3 -93.1 286.7C-130.9 281.1 -178.7 297.6 -204.4 281.3C-230 264.9 -233.6 215.7 -250.8 182.2C-268 148.7 -298.8 130.8 -317.2 103.1C-335.7 75.3 -341.7 37.7 -347.7 0L0 0Z" fill="#773d6b"></path><path d="M0 278.1C-22.2 256 -44.3 233.8 -74.5 229.3C-104.7 224.9 -142.9 238.1 -163.5 225C-184 212 -186.9 172.6 -200.6 145.8C-214.4 118.9 -239.1 104.7 -253.8 82.5C-268.5 60.3 -273.3 30.1 -278.1 0L0 0Z" fill="#b34c6d"></path><path d="M0 208.6C-16.6 192 -33.2 175.4 -55.9 172C-78.5 168.7 -107.2 178.6 -122.6 168.8C-138 159 -140.2 129.4 -150.5 109.3C-160.8 89.2 -179.3 78.5 -190.3 61.8C-201.4 45.2 -205 22.6 -208.6 0L0 0Z" fill="#e1685e"></path><path d="M0 139.1C-11.1 128 -22.2 116.9 -37.3 114.7C-52.4 112.4 -71.5 119 -81.7 112.5C-92 106 -93.4 86.3 -100.3 72.9C-107.2 59.5 -119.5 52.3 -126.9 41.2C-134.3 30.1 -136.7 15.1 -139.1 0L0 0Z" fill="#f99447"></path><path d="M0 69.5C-5.5 64 -11.1 58.5 -18.6 57.3C-26.2 56.2 -35.7 59.5 -40.9 56.3C-46 53 -46.7 43.1 -50.2 36.4C-53.6 29.7 -59.8 26.2 -63.4 20.6C-67.1 15.1 -68.3 7.5 -69.5 0L0 0Z" fill="#fbae3c"></path></g><g transform="translate(0, 600)"><path d="M0 -486.7C46.1 -467.5 92.2 -448.3 140 -430.8C187.7 -413.4 237.1 -397.8 263.9 -363.2C290.7 -328.7 294.8 -275.2 330.1 -239.8C365.3 -204.5 431.6 -187.3 462.9 -150.4C494.2 -113.5 490.5 -56.7 486.7 0L0 0Z" fill="#0f1d33"></path><path d="M0 -417.2C39.5 -400.7 79.1 -384.2 120 -369.3C160.9 -354.3 203.3 -341 226.2 -311.4C249.2 -281.7 252.7 -235.8 282.9 -205.6C313.1 -175.3 370 -160.6 396.8 -128.9C423.6 -97.3 420.4 -48.6 417.2 0L0 0Z" fill="#3d3056"></path><path d="M0 -347.7C32.9 -333.9 65.9 -320.2 100 -307.7C134.1 -295.3 169.4 -284.2 188.5 -259.5C207.6 -234.8 210.6 -196.5 235.8 -171.3C260.9 -146.1 308.3 -133.8 330.7 -107.4C353 -81.1 350.3 -40.5 347.7 0L0 0Z" fill="#773d6b"></path><path d="M0 -278.1C26.4 -267.1 52.7 -256.1 80 -246.2C107.3 -236.2 135.5 -227.3 150.8 -207.6C166.1 -187.8 168.5 -157.2 188.6 -137C208.8 -116.8 246.6 -107.1 264.5 -86C282.4 -64.8 280.3 -32.4 278.1 0L0 0Z" fill="#b34c6d"></path><path d="M0 -208.6C19.8 -200.4 39.5 -192.1 60 -184.6C80.5 -177.2 101.6 -170.5 113.1 -155.7C124.6 -140.9 126.4 -117.9 141.5 -102.8C156.6 -87.6 185 -80.3 198.4 -64.5C211.8 -48.6 210.2 -24.3 208.6 0L0 0Z" fill="#e1685e"></path><path d="M0 -139.1C13.2 -133.6 26.4 -128.1 40 -123.1C53.6 -118.1 67.8 -113.7 75.4 -103.8C83.1 -93.9 84.2 -78.6 94.3 -68.5C104.4 -58.4 123.3 -53.5 132.3 -43C141.2 -32.4 140.1 -16.2 139.1 0L0 0Z" fill="#f99447"></path><path d="M0 -69.5C6.6 -66.8 13.2 -64 20 -61.5C26.8 -59.1 33.9 -56.8 37.7 -51.9C41.5 -47 42.1 -39.3 47.2 -34.3C52.2 -29.2 61.7 -26.8 66.1 -21.5C70.6 -16.2 70.1 -8.1 69.5 0L0 0Z" fill="#fbae3c"></path></g></svg>