<svg xmlns="http://www.w3.org/2000/svg" width="870" height="870" fill="#B1D8B7"><path d="M180 870h510c27.6 0 50-22.4 50-50V50c0-27.6-22.4-50-50-50H180c-27.6 0-50 22.4-50 50v770c0 27.6 22.4 50 50 50zm473.9-61.4c-16.601 0-30-13.399-30-30 0-16.6 13.399-30 30-30 16.6 0 30 13.4 30 30s-13.4 30-30 30zm0-740.6c16.6 0 30 13.4 30 30s-13.4 30-30 30c-16.601 0-30-13.4-30-30s13.4-30 30-30zM435 90.4c129.6 0 234.7 105.1 234.7 234.7S564.6 559.8 435 559.8c-20.4 0-40.2-2.6-59.1-7.5l44.1-74.8c13.1-22.2-12-47.4-34.2-34.2l-102.3 60.3c-.2.101-.3.2-.4.301-50.6-43-82.7-107.2-82.7-178.8C200.3 195.5 305.4 90.4 435 90.4zM222.1 68c16.6 0 30 13.4 30 30s-13.399 30-30 30-30-13.4-30-30 13.4-30 30-30zm0 680.6c16.6 0 30 13.4 30 30 0 16.601-13.399 30-30 30s-30-13.399-30-30c0-16.5 13.4-30 30-30z"/><circle cx="435" cy="325.1" r="62.7"/></svg>